# xmcd CD database file
#
# Track frame offsets:
#	217
#	28745
#	39947
#	68000
#	90667
#	123665
#	162307
#	181500
#	203025
#	225450
#	254935
#
# Disc length: 3774 seconds
#
# Revision: 0
# Processed by: cddbd v1.4PL0 Copyright (c) Steve Scherf et al.
# Submitted via: CDex 1.50Beta7
#
DISCID=8d0ebc0b
DTITLE=Olympia serenaders - Just a closer walk with thee
DYEAR=1991
DGENRE=Jazz
TTITLE0=Lord, Lord
TTITLE1=Introduction blues
TTITLE2=Ting-a-ling
TTITLE3=Blueberry hill
TTITLE4=All of me
TTITLE5=Down yonder
TTITLE6=Just a closer walk
TTITLE7=Until we meet again
TTITLE8=I get the blues when  it rains
TTITLE9=Lady be good
TTITLE10=St.Louis blues
EXTD=YEAR: 1991
EXTT0=
EXTT1=
EXTT2=
EXTT3=
EXTT4=
EXTT5=
EXTT6=
EXTT7=
EXTT8=
EXTT9=
EXTT10=
PLAYORDER=
